<svg id="Layer_1_1_" enable-background="new 0 0 64 64" height="512" viewBox="0 0 64 64" width="512" xmlns="http://www.w3.org/2000/svg"><path d="m44 25v6c0 6.617-5.383 12-12 12s-12-5.383-12-12v-6h-2v6c0 7.039 5.227 12.865 12 13.84v11.16h4v-11.16c6.773-.976 12-6.801 12-13.84v-6z" fill="#004fa8"/><path d="m44 19v1h-3v2h3v1h2v-4z" fill="#004fa8"/><path d="m20 19h-2v4h2v-1h3v-2h-3z" fill="#004fa8"/><path d="m23 23v7c0 4.971 4.029 9 9 9s9-4.029 9-9v-7z" fill="#004fa8"/><path d="m41 23v-2-2h-18v2 2z" fill="#57a5ff"/><path d="m21 61h22c0-2.761-2.239-5-5-5h-4-4-4c-2.761 0-5 2.239-5 5z" fill="#004fa8"/><path d="m32 3c-4.971 0-9 4.029-9 9v7h18v-7c0-4.971-4.029-9-9-9z" fill="#f2f8ff"/><path d="m25.6 30.2v-5.6h-1.6v5.6c0 3.976 3.224 7.2 7.2 7.2.271 0 .537-.018.8-.047-3.6-.398-6.4-3.447-6.4-7.153z" fill="#f2f8ff"/><path d="m37.108 5.193c-2.304-2.101-4.273-2.337-6.108-2.134 4.499.498 8 4.309 8 8.941 0 2.209-1.791 4-4 4h-12v3h5c6.075 0 11 4.925 11 11 0 4.632-3.501 8.443-8 8.941 1.835.203 3.804-.033 6.108-2.134 2.528-2.305 3.892-5.627 3.892-9.048v-8.759-3-1.759c0-3.421-1.364-6.743-3.892-9.048z" fill="#303030" opacity=".06"/><path d="m21.422 59c-.268.613-.422 1.288-.422 2h22c0-.712-.154-1.387-.422-2z" fill="#303030" opacity=".12"/><g fill="#57a5ff"><path d="m28 17c-.552 0-1-.448-1-1 0-.552.448-1 1-1 .552 0 1 .448 1 1 0 .552-.448 1-1 1z"/><path d="m28 13c-.552 0-1-.448-1-1 0-.552.448-1 1-1 .552 0 1 .448 1 1 0 .552-.448 1-1 1z"/><path d="m28 9c-.552 0-1-.448-1-1 0-.552.448-1 1-1 .552 0 1 .448 1 1 0 .552-.448 1-1 1z"/><path d="m32 17c-.552 0-1-.448-1-1 0-.552.448-1 1-1 .552 0 1 .448 1 1 0 .552-.448 1-1 1z"/><path d="m32 13c-.552 0-1-.448-1-1 0-.552.448-1 1-1 .552 0 1 .448 1 1 0 .552-.448 1-1 1z"/><path d="m32 9c-.552 0-1-.448-1-1 0-.552.448-1 1-1 .552 0 1 .448 1 1 0 .552-.448 1-1 1z"/><path d="m36 17c-.552 0-1-.448-1-1 0-.552.448-1 1-1 .552 0 1 .448 1 1 0 .552-.448 1-1 1z"/><path d="m36 13c-.552 0-1-.448-1-1 0-.552.448-1 1-1 .552 0 1 .448 1 1 0 .552-.448 1-1 1z"/><path d="m36 9c-.552 0-1-.448-1-1 0-.552.448-1 1-1 .552 0 1 .448 1 1 0 .552-.448 1-1 1z"/></g><path d="m23 26h4v2h-4z" fill="#303030" opacity=".06"/><path d="m29 26h12v2h-12z" fill="#303030" opacity=".06"/><path d="m30 55h4v1h-4z" fill="#303030" opacity=".12"/></svg>