<?xml version="1.0" encoding="UTF-8"?>
<svg xmlns="http://www.w3.org/2000/svg" xmlns:xlink="http://www.w3.org/1999/xlink" width="100pt" height="100pt" viewBox="0 0 100 100" version="1.1">
<defs>
<filter id="alpha" filterUnits="objectBoundingBox" x="0%" y="0%" width="100%" height="100%">
  <feColorMatrix type="matrix" in="SourceGraphic" values="0 0 0 0 1 0 0 0 0 1 0 0 0 0 1 0 0 0 1 0"/>
</filter>
<mask id="mask0">
  <g filter="url(#alpha)">
<rect x="0" y="0" width="100" height="100" style="fill:rgb(0%,0%,0%);fill-opacity:0.0588235;stroke:none;"/>
  </g>
</mask>
<clipPath id="clip1">
  <rect width="100" height="100"/>
</clipPath>
<g id="surface6" clip-path="url(#clip1)">
<path style=" stroke:none;fill-rule:nonzero;fill:rgb(18.823529%,18.823529%,18.823529%);fill-opacity:1;" d="M 57.980469 8.113281 C 54.382812 4.832031 51.304688 4.460938 48.4375 4.78125 C 55.46875 5.558594 60.9375 11.511719 60.9375 18.75 C 60.9375 22.203125 58.140625 25 54.6875 25 L 35.9375 25 L 35.9375 29.6875 L 43.75 29.6875 C 53.242188 29.6875 60.9375 37.382812 60.9375 46.875 C 60.9375 54.113281 55.46875 60.066406 48.4375 60.84375 C 51.304688 61.164062 54.382812 60.792969 57.980469 57.511719 C 61.929688 53.910156 64.0625 48.71875 64.0625 43.375 L 64.0625 22.25 C 64.0625 16.90625 61.929688 11.714844 57.980469 8.113281 Z M 57.980469 8.113281 "/>
</g>
<mask id="mask1">
  <g filter="url(#alpha)">
<rect x="0" y="0" width="100" height="100" style="fill:rgb(0%,0%,0%);fill-opacity:0.121569;stroke:none;"/>
  </g>
</mask>
<clipPath id="clip2">
  <rect width="100" height="100"/>
</clipPath>
<g id="surface9" clip-path="url(#clip2)">
<path style=" stroke:none;fill-rule:nonzero;fill:rgb(18.823529%,18.823529%,18.823529%);fill-opacity:1;" d="M 33.472656 92.1875 C 33.054688 93.144531 32.8125 94.199219 32.8125 95.3125 L 67.1875 95.3125 C 67.1875 94.199219 66.945312 93.144531 66.527344 92.1875 Z M 33.472656 92.1875 "/>
</g>
<mask id="mask2">
  <g filter="url(#alpha)">
<rect x="0" y="0" width="100" height="100" style="fill:rgb(0%,0%,0%);fill-opacity:0.0588235;stroke:none;"/>
  </g>
</mask>
<clipPath id="clip3">
  <rect width="100" height="100"/>
</clipPath>
<g id="surface12" clip-path="url(#clip3)">
<path style=" stroke:none;fill-rule:nonzero;fill:rgb(18.823529%,18.823529%,18.823529%);fill-opacity:1;" d="M 35.9375 40.625 L 42.1875 40.625 L 42.1875 43.75 L 35.9375 43.75 Z M 35.9375 40.625 "/>
</g>
<mask id="mask3">
  <g filter="url(#alpha)">
<rect x="0" y="0" width="100" height="100" style="fill:rgb(0%,0%,0%);fill-opacity:0.0588235;stroke:none;"/>
  </g>
</mask>
<clipPath id="clip4">
  <rect width="100" height="100"/>
</clipPath>
<g id="surface15" clip-path="url(#clip4)">
<path style=" stroke:none;fill-rule:nonzero;fill:rgb(18.823529%,18.823529%,18.823529%);fill-opacity:1;" d="M 45.3125 40.625 L 64.0625 40.625 L 64.0625 43.75 L 45.3125 43.75 Z M 45.3125 40.625 "/>
</g>
<mask id="mask4">
  <g filter="url(#alpha)">
<rect x="0" y="0" width="100" height="100" style="fill:rgb(0%,0%,0%);fill-opacity:0.121569;stroke:none;"/>
  </g>
</mask>
<clipPath id="clip5">
  <rect width="100" height="100"/>
</clipPath>
<g id="surface18" clip-path="url(#clip5)">
<path style=" stroke:none;fill-rule:nonzero;fill:rgb(18.823529%,18.823529%,18.823529%);fill-opacity:1;" d="M 46.875 85.9375 L 53.125 85.9375 L 53.125 87.5 L 46.875 87.5 Z M 46.875 85.9375 "/>
</g>
</defs>
<g id="surface1">
<path style=" stroke:none;fill-rule:nonzero;fill:rgb(0%,30.980392%,65.882353%);fill-opacity:1;" d="M 68.75 39.0625 L 68.75 48.4375 C 68.75 58.777344 60.339844 67.1875 50 67.1875 C 39.660156 67.1875 31.25 58.777344 31.25 48.4375 L 31.25 39.0625 L 28.125 39.0625 L 28.125 48.4375 C 28.125 59.4375 36.292969 68.539062 46.875 70.0625 L 46.875 87.5 L 53.125 87.5 L 53.125 70.0625 C 63.707031 68.539062 71.875 59.4375 71.875 48.4375 L 71.875 39.0625 Z M 68.75 39.0625 "/>
<path style=" stroke:none;fill-rule:nonzero;fill:rgb(0%,30.980392%,65.882353%);fill-opacity:1;" d="M 68.75 29.6875 L 68.75 31.25 L 64.0625 31.25 L 64.0625 34.375 L 68.75 34.375 L 68.75 35.9375 L 71.875 35.9375 L 71.875 29.6875 Z M 68.75 29.6875 "/>
<path style=" stroke:none;fill-rule:nonzero;fill:rgb(0%,30.980392%,65.882353%);fill-opacity:1;" d="M 31.25 29.6875 L 28.125 29.6875 L 28.125 35.9375 L 31.25 35.9375 L 31.25 34.375 L 35.9375 34.375 L 35.9375 31.25 L 31.25 31.25 Z M 31.25 29.6875 "/>
<path style=" stroke:none;fill-rule:nonzero;fill:rgb(0%,30.980392%,65.882353%);fill-opacity:1;" d="M 35.9375 35.9375 L 35.9375 46.875 C 35.9375 54.640625 42.234375 60.9375 50 60.9375 C 57.765625 60.9375 64.0625 54.640625 64.0625 46.875 L 64.0625 35.9375 Z M 35.9375 35.9375 "/>
<path style=" stroke:none;fill-rule:nonzero;fill:rgb(34.117647%,64.705882%,100%);fill-opacity:1;" d="M 64.0625 35.9375 L 64.0625 29.6875 L 35.9375 29.6875 L 35.9375 35.9375 Z M 64.0625 35.9375 "/>
<path style=" stroke:none;fill-rule:nonzero;fill:rgb(0%,30.980392%,65.882353%);fill-opacity:1;" d="M 32.8125 95.3125 L 67.1875 95.3125 C 67.1875 91 63.6875 87.5 59.375 87.5 L 40.625 87.5 C 36.3125 87.5 32.8125 91 32.8125 95.3125 Z M 32.8125 95.3125 "/>
<path style=" stroke:none;fill-rule:nonzero;fill:rgb(94.901961%,97.254902%,100%);fill-opacity:1;" d="M 50 4.6875 C 42.234375 4.6875 35.9375 10.984375 35.9375 18.75 L 35.9375 29.6875 L 64.0625 29.6875 L 64.0625 18.75 C 64.0625 10.984375 57.765625 4.6875 50 4.6875 Z M 50 4.6875 "/>
<path style=" stroke:none;fill-rule:nonzero;fill:rgb(94.901961%,97.254902%,100%);fill-opacity:1;" d="M 40 47.1875 L 40 38.4375 L 37.5 38.4375 L 37.5 47.1875 C 37.5 53.398438 42.539062 58.4375 48.75 58.4375 C 49.171875 58.4375 49.589844 58.410156 50 58.363281 C 44.375 57.742188 40 52.976562 40 47.1875 Z M 40 47.1875 "/>
<use xlink:href="#surface6" mask="url(#mask0)"/>
<use xlink:href="#surface9" mask="url(#mask1)"/>
<path style=" stroke:none;fill-rule:nonzero;fill:rgb(34.117647%,64.705882%,100%);fill-opacity:1;" d="M 43.75 26.5625 C 42.886719 26.5625 42.1875 25.863281 42.1875 25 C 42.1875 24.136719 42.886719 23.4375 43.75 23.4375 C 44.613281 23.4375 45.3125 24.136719 45.3125 25 C 45.3125 25.863281 44.613281 26.5625 43.75 26.5625 Z M 43.75 26.5625 "/>
<path style=" stroke:none;fill-rule:nonzero;fill:rgb(34.117647%,64.705882%,100%);fill-opacity:1;" d="M 43.75 20.3125 C 42.886719 20.3125 42.1875 19.613281 42.1875 18.75 C 42.1875 17.886719 42.886719 17.1875 43.75 17.1875 C 44.613281 17.1875 45.3125 17.886719 45.3125 18.75 C 45.3125 19.613281 44.613281 20.3125 43.75 20.3125 Z M 43.75 20.3125 "/>
<path style=" stroke:none;fill-rule:nonzero;fill:rgb(34.117647%,64.705882%,100%);fill-opacity:1;" d="M 43.75 14.0625 C 42.886719 14.0625 42.1875 13.363281 42.1875 12.5 C 42.1875 11.636719 42.886719 10.9375 43.75 10.9375 C 44.613281 10.9375 45.3125 11.636719 45.3125 12.5 C 45.3125 13.363281 44.613281 14.0625 43.75 14.0625 Z M 43.75 14.0625 "/>
<path style=" stroke:none;fill-rule:nonzero;fill:rgb(34.117647%,64.705882%,100%);fill-opacity:1;" d="M 50 26.5625 C 49.136719 26.5625 48.4375 25.863281 48.4375 25 C 48.4375 24.136719 49.136719 23.4375 50 23.4375 C 50.863281 23.4375 51.5625 24.136719 51.5625 25 C 51.5625 25.863281 50.863281 26.5625 50 26.5625 Z M 50 26.5625 "/>
<path style=" stroke:none;fill-rule:nonzero;fill:rgb(34.117647%,64.705882%,100%);fill-opacity:1;" d="M 50 20.3125 C 49.136719 20.3125 48.4375 19.613281 48.4375 18.75 C 48.4375 17.886719 49.136719 17.1875 50 17.1875 C 50.863281 17.1875 51.5625 17.886719 51.5625 18.75 C 51.5625 19.613281 50.863281 20.3125 50 20.3125 Z M 50 20.3125 "/>
<path style=" stroke:none;fill-rule:nonzero;fill:rgb(34.117647%,64.705882%,100%);fill-opacity:1;" d="M 50 14.0625 C 49.136719 14.0625 48.4375 13.363281 48.4375 12.5 C 48.4375 11.636719 49.136719 10.9375 50 10.9375 C 50.863281 10.9375 51.5625 11.636719 51.5625 12.5 C 51.5625 13.363281 50.863281 14.0625 50 14.0625 Z M 50 14.0625 "/>
<path style=" stroke:none;fill-rule:nonzero;fill:rgb(34.117647%,64.705882%,100%);fill-opacity:1;" d="M 56.25 26.5625 C 55.386719 26.5625 54.6875 25.863281 54.6875 25 C 54.6875 24.136719 55.386719 23.4375 56.25 23.4375 C 57.113281 23.4375 57.8125 24.136719 57.8125 25 C 57.8125 25.863281 57.113281 26.5625 56.25 26.5625 Z M 56.25 26.5625 "/>
<path style=" stroke:none;fill-rule:nonzero;fill:rgb(34.117647%,64.705882%,100%);fill-opacity:1;" d="M 56.25 20.3125 C 55.386719 20.3125 54.6875 19.613281 54.6875 18.75 C 54.6875 17.886719 55.386719 17.1875 56.25 17.1875 C 57.113281 17.1875 57.8125 17.886719 57.8125 18.75 C 57.8125 19.613281 57.113281 20.3125 56.25 20.3125 Z M 56.25 20.3125 "/>
<path style=" stroke:none;fill-rule:nonzero;fill:rgb(34.117647%,64.705882%,100%);fill-opacity:1;" d="M 56.25 14.0625 C 55.386719 14.0625 54.6875 13.363281 54.6875 12.5 C 54.6875 11.636719 55.386719 10.9375 56.25 10.9375 C 57.113281 10.9375 57.8125 11.636719 57.8125 12.5 C 57.8125 13.363281 57.113281 14.0625 56.25 14.0625 Z M 56.25 14.0625 "/>
<use xlink:href="#surface12" mask="url(#mask2)"/>
<use xlink:href="#surface15" mask="url(#mask3)"/>
<use xlink:href="#surface18" mask="url(#mask4)"/>
</g>
</svg>
